G04 Layer_Physical_Order=1*
G04 Layer_Color=255*
%FSLAX42Y42*%
%MOMM*%
G71*
G01*
G75*
%ADD10C,0.20*%
G04:AMPARAMS|DCode=11|XSize=4mm|YSize=2mm|CornerRadius=0.5mm|HoleSize=0mm|Usage=FLASHONLY|Rotation=35.000|XOffset=0mm|YOffset=0mm|HoleType=Round|Shape=RoundedRectangle|*
%AMROUNDEDRECTD11*
21,1,4.00,1.00,0,0,35.0*
21,1,3.00,2.00,0,0,35.0*
1,1,1.00,1.52,0.45*
1,1,1.00,-0.94,-1.27*
1,1,1.00,-1.52,-0.45*
1,1,1.00,0.94,1.27*
%
%ADD11ROUNDEDRECTD11*%
G04:AMPARAMS|DCode=12|XSize=4mm|YSize=2mm|CornerRadius=0.5mm|HoleSize=0mm|Usage=FLASHONLY|Rotation=120.000|XOffset=0mm|YOffset=0mm|HoleType=Round|Shape=RoundedRectangle|*
%AMROUNDEDRECTD12*
21,1,4.00,1.00,0,0,120.0*
21,1,3.00,2.00,0,0,120.0*
1,1,1.00,-0.32,1.55*
1,1,1.00,1.18,-1.05*
1,1,1.00,0.32,-1.55*
1,1,1.00,-1.18,1.05*
%
%ADD12ROUNDEDRECTD12*%
%ADD13R,1.10X2.60*%
%ADD14R,1.10X1.70*%
G04:AMPARAMS|DCode=15|XSize=4mm|YSize=2mm|CornerRadius=0.5mm|HoleSize=0mm|Usage=FLASHONLY|Rotation=90.000|XOffset=0mm|YOffset=0mm|HoleType=Round|Shape=RoundedRectangle|*
%AMROUNDEDRECTD15*
21,1,4.00,1.00,0,0,90.0*
21,1,3.00,2.00,0,0,90.0*
1,1,1.00,0.50,1.50*
1,1,1.00,0.50,-1.50*
1,1,1.00,-0.50,-1.50*
1,1,1.00,-0.50,1.50*
%
%ADD15ROUNDEDRECTD15*%
%ADD16O,1.75X0.67*%
%ADD17R,1.75X0.67*%
G04:AMPARAMS|DCode=18|XSize=4mm|YSize=2mm|CornerRadius=0.5mm|HoleSize=0mm|Usage=FLASHONLY|Rotation=330.000|XOffset=0mm|YOffset=0mm|HoleType=Round|Shape=RoundedRectangle|*
%AMROUNDEDRECTD18*
21,1,4.00,1.00,0,0,330.0*
21,1,3.00,2.00,0,0,330.0*
1,1,1.00,1.05,-1.18*
1,1,1.00,-1.55,0.32*
1,1,1.00,-1.05,1.18*
1,1,1.00,1.55,-0.32*
%
%ADD18ROUNDEDRECTD18*%
%ADD19R,2.30X2.30*%
G04:AMPARAMS|DCode=20|XSize=2.77mm|YSize=2.55mm|CornerRadius=0mm|HoleSize=0mm|Usage=FLASHONLY|Rotation=120.000|XOffset=0mm|YOffset=0mm|HoleType=Round|Shape=Rectangle|*
%AMROTATEDRECTD20*
4,1,4,1.80,-0.56,-0.41,-1.84,-1.80,0.56,0.41,1.84,1.80,-0.56,0.0*
%
%ADD20ROTATEDRECTD20*%

%ADD21R,5.59X3.05*%
%ADD22C,2.03*%
%ADD23C,1.50*%
%ADD24R,2.29X2.29*%
%ADD25R,2.29X2.29*%
%ADD26R,2.54X2.54*%
%ADD27C,1.52*%
%ADD28C,1.00*%
%ADD29C,1.27*%
D10*
X13214Y14912D02*
G03*
X13034Y14986I-180J-180D01*
G01*
X11180D02*
G03*
X11000Y14912I0J-254D01*
G01*
X10361Y14273D02*
G03*
X10287Y14093I180J-180D01*
G01*
X7859Y15430D02*
G03*
X7798Y15405I0J-87D01*
G01*
X7723Y13634D02*
G03*
X7798Y13814I-180J180D01*
G01*
X6515Y14263D02*
Y15116D01*
X6570Y14331D02*
X6642Y14258D01*
X6515Y14263D02*
X6565Y14214D01*
Y14086D02*
Y14214D01*
X6642Y14249D02*
Y14258D01*
X6606Y14089D02*
X6725Y14208D01*
Y14371D01*
X5588Y12573D02*
X5946D01*
X6655Y14371D02*
X6725D01*
X6655D02*
Y14732D01*
X14152Y11051D02*
X14656Y12014D01*
X13214Y14912D02*
X13475Y14651D01*
X11180Y14986D02*
X13034D01*
X10361Y14273D02*
X11000Y14912D01*
X10287Y13119D02*
Y14093D01*
X13068Y15430D02*
X13475Y14651D01*
X13391Y14618D02*
Y14618D01*
Y14618D02*
X13391Y14618D01*
X13399Y14600D01*
X10300Y7899D02*
Y8915D01*
X10287Y10104D02*
X10300Y8915D01*
Y7823D02*
Y7899D01*
X10287Y10147D02*
Y11341D01*
Y10104D02*
Y10147D01*
X8407D02*
X10287D01*
X14364Y13111D02*
X14656Y12014D01*
X6359Y10313D02*
X6868Y11036D01*
X7859Y15430D02*
X8242D01*
X7798Y13814D02*
Y15405D01*
X7709Y13619D02*
X7723Y13634D01*
X6617Y9589D02*
X6629Y9601D01*
X6921Y9423D01*
X6985Y9208D01*
X6497Y11595D02*
X7036D01*
X7798Y12357D01*
X6380Y11712D02*
X6497Y11595D01*
X7844Y12568D02*
X8001D01*
X6952Y11676D02*
X7844Y12568D01*
X8019Y12586D02*
Y13594D01*
X8001Y12568D02*
X8019Y12586D01*
X6906Y11676D02*
X6952D01*
X7518Y12624D02*
Y12751D01*
X6756Y11862D02*
X7518Y12624D01*
X6528Y11862D02*
X6756D01*
X6183Y11412D02*
X6528D01*
Y11394D02*
X7150Y11303D01*
X12598Y10198D02*
X12696Y10031D01*
X14656Y12014D02*
X15672D01*
X7198Y14765D02*
X7435D01*
X7595Y14605D01*
Y14122D02*
Y14605D01*
X7201Y13492D02*
Y14503D01*
Y14554D01*
Y14503D02*
X7429Y14275D01*
X7468Y15118D02*
Y15202D01*
X5735Y12700D02*
X6170D01*
X6287D01*
X5515D02*
X5735D01*
X7518Y12751D02*
X7709D01*
X7369D02*
X7518D01*
X7404Y15265D02*
Y15430D01*
Y15265D02*
X7468Y15202D01*
X7325Y15850D02*
Y16615D01*
X7142Y16798D02*
X7325Y16615D01*
Y15850D02*
X7384D01*
X7404Y15430D01*
X5644Y13792D02*
X6350D01*
X5588Y13848D02*
X5644Y13792D01*
X6236Y13145D02*
X6355D01*
Y12860D02*
Y13145D01*
X5648Y12446D02*
X6287D01*
X5560Y12358D02*
X5648Y12446D01*
X6027Y15369D02*
X6145D01*
X5373Y14715D02*
X6027Y15369D01*
X5373Y12191D02*
Y14715D01*
Y12191D02*
X5690Y11875D01*
X7134Y15430D02*
Y16318D01*
X6941Y16511D02*
X7134Y16318D01*
X5639Y14313D02*
X5865D01*
X6391Y14839D01*
Y15476D01*
X6673Y15758D01*
Y16015D01*
X6607Y16081D02*
X6673Y16015D01*
X6607Y16081D02*
Y16340D01*
X6777Y16511D01*
X6941D01*
X6037Y10871D02*
Y10896D01*
X6279Y11138D01*
X7709Y13619D02*
X8019Y13594D01*
X7168Y12951D02*
X7369Y12751D01*
X6708Y12951D02*
X7168D01*
X6678Y12981D02*
X6708Y12951D01*
X6678Y12981D02*
Y13435D01*
X6716Y13472D01*
Y13526D01*
X6855Y13665D01*
X6910D01*
X7198Y14765D02*
Y14973D01*
X6385Y14248D02*
X6485Y14148D01*
X6385Y14248D02*
Y14491D01*
X6688Y12319D02*
X6846D01*
X6380Y12012D02*
X6688Y12319D01*
X6380Y11712D02*
Y12012D01*
X7798Y12357D02*
X8763D01*
X5946Y12573D02*
X6287D01*
X5453Y12438D02*
X5588Y12573D01*
X5453Y12273D02*
Y12438D01*
Y12273D02*
X5518Y12208D01*
X5808D01*
X5918Y12319D01*
X6287D01*
X6570Y14331D02*
Y14742D01*
X6613Y14785D01*
Y14973D01*
X6339Y15062D02*
Y15651D01*
X6158Y14881D02*
X6339Y15062D01*
X5761Y14881D02*
X6158D01*
X5431Y14551D02*
X5761Y14881D01*
X5431Y13797D02*
Y14551D01*
Y13797D02*
X5563Y13665D01*
X6350D01*
X7595Y15850D02*
Y16802D01*
X7465Y16932D02*
X7595Y16802D01*
X7048Y16932D02*
X7465D01*
X6941Y16825D02*
X7048Y16932D01*
X6941Y16511D02*
Y16825D01*
X6287Y12446D02*
X6421D01*
X6566Y12591D01*
Y13957D01*
X6606Y13997D01*
Y14089D01*
X6739Y12700D02*
X6846D01*
X6638Y12800D02*
X6739Y12700D01*
X6638Y12800D02*
Y13502D01*
X6678Y13541D01*
Y14082D01*
X6845Y14250D01*
Y14714D01*
X6883Y14752D01*
Y14973D01*
X6740Y15341D02*
Y16224D01*
X6515Y15116D02*
X6740Y15341D01*
X6515Y14037D02*
X6565Y14086D01*
X6515Y13365D02*
Y14037D01*
X6421Y13271D02*
X6515Y13365D01*
X6236Y13271D02*
X6421D01*
X5639Y14313D02*
X5969Y13983D01*
X6445D01*
X6468Y13960D01*
Y13492D02*
Y13960D01*
X6374Y13399D02*
X6468Y13492D01*
X6236Y13399D02*
X6374D01*
X5413Y12598D02*
X5515Y12700D01*
X5413Y12230D02*
Y12598D01*
Y12230D02*
X5601Y12042D01*
X5897D01*
X6528Y11412D01*
X7468Y14973D02*
Y15118D01*
X7384Y15202D02*
X7468Y15118D01*
X6833Y15202D02*
X7384D01*
X6749Y15118D02*
X6833Y15202D01*
X6749Y14826D02*
Y15118D01*
X6655Y14732D02*
X6749Y14826D01*
X5588Y12847D02*
X5735Y12700D01*
X6931Y14348D02*
Y14554D01*
Y14348D02*
X7041Y14238D01*
Y13571D02*
Y14238D01*
X6990Y13520D02*
X7041Y13571D01*
X6137Y13271D02*
X6236D01*
X6096Y13231D02*
X6137Y13271D01*
X6096Y13058D02*
Y13231D01*
Y13058D02*
X6137Y13018D01*
X6236D01*
X7107Y13399D02*
X7201Y13492D01*
X6796Y13399D02*
X7107D01*
X5974Y12896D02*
X6170Y12700D01*
X5974Y12896D02*
Y13277D01*
X6096Y13399D01*
X6236D01*
X5471Y13965D02*
X5588Y13848D01*
X5471Y13965D02*
Y14393D01*
X5730Y14651D01*
X6162Y11391D02*
X6183Y11412D01*
X5819Y11391D02*
X6162D01*
X6528Y11394D02*
Y11412D01*
Y11394D02*
X6868Y11054D01*
Y11036D02*
Y11054D01*
X6910Y13665D02*
Y13792D01*
X6796Y13271D02*
Y13399D01*
Y13145D02*
Y13271D01*
Y13018D02*
Y13145D01*
X6846Y12573D02*
Y12700D01*
Y12446D02*
Y12573D01*
Y12319D02*
Y12446D01*
D11*
X12696Y10031D02*
D03*
X14152Y11051D02*
D03*
D12*
X14364Y13111D02*
D03*
X13475Y14651D02*
D03*
D13*
X7198Y14973D02*
D03*
X7468D02*
D03*
X6405Y14491D02*
D03*
X6675D02*
D03*
X6613Y14973D02*
D03*
X6883D02*
D03*
X6931Y14554D02*
D03*
X7201D02*
D03*
D14*
X7404Y15430D02*
D03*
X7134D02*
D03*
X7595Y15850D02*
D03*
X7325D02*
D03*
D15*
X10287Y11341D02*
D03*
Y13119D02*
D03*
D16*
X6846Y12319D02*
D03*
Y12446D02*
D03*
Y12573D02*
D03*
Y12700D02*
D03*
X6287Y12319D02*
D03*
Y12446D02*
D03*
Y12573D02*
D03*
X6796Y13018D02*
D03*
Y13145D02*
D03*
Y13271D02*
D03*
Y13399D02*
D03*
X6236Y13018D02*
D03*
Y13145D02*
D03*
Y13271D02*
D03*
X6910Y13665D02*
D03*
Y13792D02*
D03*
Y13919D02*
D03*
Y14046D02*
D03*
X6350Y13665D02*
D03*
Y13792D02*
D03*
Y13919D02*
D03*
D17*
X6287Y12700D02*
D03*
X6236Y13399D02*
D03*
X6350Y14046D02*
D03*
D18*
X6868Y11036D02*
D03*
X8407Y10147D02*
D03*
D19*
X6528Y11862D02*
D03*
Y11412D02*
D03*
D20*
X6359Y10313D02*
D03*
X6037Y10871D02*
D03*
D21*
X7709Y12751D02*
D03*
Y13619D02*
D03*
D22*
X5939Y15076D02*
D03*
X7142Y16798D02*
D03*
X6941Y16511D02*
D03*
X6740Y16224D02*
D03*
X6540Y15938D02*
D03*
X6339Y15651D02*
D03*
X6145Y15369D02*
D03*
X5639Y14313D02*
D03*
X5730Y14651D02*
D03*
D23*
X14402Y9365D02*
D03*
X14194Y9220D02*
D03*
X12654Y11862D02*
D03*
X12446Y11717D02*
D03*
X15176Y14753D02*
D03*
X15303Y14533D02*
D03*
X12536Y13229D02*
D03*
X12663Y13009D02*
D03*
X11811Y12357D02*
D03*
Y12103D02*
D03*
X8763Y12357D02*
D03*
Y12103D02*
D03*
X6985Y9208D02*
D03*
X6766Y9335D02*
D03*
X8509Y11848D02*
D03*
X8290Y11975D02*
D03*
D24*
X10300Y8915D02*
D03*
Y7899D02*
D03*
D25*
X14656Y12014D02*
D03*
X15672D02*
D03*
D26*
X13068Y17462D02*
D03*
Y15430D02*
D03*
X8242D02*
D03*
Y17462D02*
D03*
D27*
X5588Y13848D02*
D03*
Y13348D02*
D03*
Y12847D02*
D03*
X5560Y12358D02*
D03*
X5690Y11875D02*
D03*
X5819Y11391D02*
D03*
D28*
X6642Y14249D02*
D03*
X5946Y12573D02*
D03*
X6355Y12860D02*
D03*
X6279Y11138D02*
D03*
X6906Y11676D02*
D03*
X6485Y14148D02*
D03*
X6990Y13520D02*
D03*
D29*
X6617Y9589D02*
D03*
X7150Y11303D02*
D03*
X12598Y10198D02*
D03*
X7595Y14122D02*
D03*
X7429Y14275D02*
D03*
M02*
