M48
;Layer_Color=9474304
;FILE_FORMAT=4:2
METRIC,LZ
;TYPE=PLATED
T1F00S00C0.60
T2F00S00C0.71
T3F00S00C0.76
T4F00S00C0.80
T5F00S00C1.02
T6F00S00C1.70
T7F00S00C1.78
%
T01
X006279Y011138
X006906Y011676
X006355Y01286
X005946Y012573
X00699Y01352
X006642Y014249
X006485Y014148
T02
X006617Y009589
X00715Y011303
X012598Y010198
X007595Y014122
X007429Y014275
T03
X005819Y011391
X00569Y011875
X00556Y012358
X005588Y012847
Y013348
Y013848
T04
X006766Y009335
X006985Y009208
X008509Y011848
X012446Y011717
X012654Y011862
X014194Y00922
X014402Y009365
X012663Y013009
X012536Y013229
X015303Y014533
X015176Y014753
X011811Y012357
Y012103
X008763
Y012357
X00829Y011975
T05
X005639Y014313
X00573Y014651
X005939Y015076
X006145Y015369
X006339Y015651
X00654Y015938
X00674Y016224
X006941Y016511
X007142Y016798
T06
X0103Y007899
Y008915
X014656Y012014
X015672
T07
X013068Y01543
X008242
Y017462
X013068
M30
