G04 Layer_Physical_Order=2*
G04 Layer_Color=16711680*
%FSLAX23Y23*%
%MOIN*%
G70*
G01*
G75*
%ADD21C,0.010*%
%ADD22C,0.059*%
%ADD23R,0.073X0.073*%
%ADD24C,0.073*%
%ADD25C,0.060*%
%ADD26R,0.090X0.090*%
%ADD27R,0.100X0.100*%
%ADD28C,0.080*%
%ADD29R,0.073X0.073*%
%ADD30C,0.050*%
D21*
X-6150Y755D02*
X-5290D01*
X-5140Y1325D02*
X-4225Y410D01*
X-4602Y1740D02*
X-4494D01*
X-7030Y8D02*
X-6995Y-27D01*
Y-93D02*
Y-27D01*
X-7011Y61D02*
Y61D01*
X-7030Y42D02*
X-7011Y61D01*
X-7015Y65D02*
X-7011Y61D01*
X-7030Y8D02*
Y42D01*
X-6995Y-93D02*
X-6951Y-137D01*
X-3648Y-105D02*
X-3625D01*
X-3868Y-325D02*
X-3648Y-105D01*
X-4435Y-325D02*
X-3868D01*
X-3859Y-345D02*
X-3664Y-150D01*
X-4455Y-345D02*
X-3859D01*
X-3664Y-150D02*
X-3607D01*
X-7040Y1645D02*
X-6150Y755D01*
X-4885Y-165D02*
X-4825Y-105D01*
X-7718Y-68D02*
X-7455Y195D01*
X-7718Y-521D02*
Y-68D01*
X-7675Y-205D02*
X-7670Y-200D01*
X-7570D01*
X-7635Y230D02*
X-7580Y175D01*
X-7735Y230D02*
X-7635D01*
X-7137Y385D02*
X-7095Y427D01*
X-7255Y385D02*
X-7137D01*
X-7510Y-810D02*
X-6690D01*
X-7510D02*
Y-760D01*
X-7095Y1590D02*
X-7040Y1645D01*
X-7095Y427D02*
Y1590D01*
X-7140Y445D02*
Y1645D01*
X-3780Y-520D02*
X-3605Y-345D01*
Y-195D01*
X-3607Y-150D02*
X-3575Y-118D01*
Y-55D01*
X-7080Y-615D02*
X-7040Y-655D01*
X-6850D01*
X-6890Y-255D02*
X-6690D01*
X-6625Y-190D01*
X-7114Y-255D02*
X-6890D01*
X-7115Y-256D02*
X-7114Y-255D01*
X-7170Y-201D02*
X-7115Y-256D01*
X-5325Y1415D02*
Y1435D01*
Y1415D02*
X-5235Y1325D01*
X-5140D01*
X-4225Y395D02*
Y410D01*
X-4218Y403D01*
X-4225Y410D02*
Y420D01*
Y395D02*
X-4218Y403D01*
X-6905Y-1425D02*
Y-1295D01*
X-6993Y-1207D02*
X-6905Y-1295D01*
X-7025Y-1207D02*
X-6993D01*
X-4494Y1740D02*
X-4350Y1596D01*
X-3785Y830D02*
Y860D01*
X-3885Y960D02*
X-3785Y860D01*
X-3885Y960D02*
Y1090D01*
X-4350Y1555D02*
X-3885Y1090D01*
X-4350Y1555D02*
Y1596D01*
X-6763Y65D02*
X-6723Y25D01*
X-4775Y-130D02*
Y-75D01*
Y-130D02*
X-4773D01*
X-4833Y-190D02*
X-4773Y-130D01*
X-6625Y-190D02*
X-4833D01*
X-6800Y-165D02*
X-4885D01*
X-6990Y25D02*
X-6800Y-165D01*
X-4795Y-55D02*
X-4775Y-75D01*
X-5135Y-55D02*
X-4795D01*
X-5200Y-120D02*
X-5135Y-55D01*
X-5335Y-120D02*
X-5200D01*
X-4825Y-5D02*
X-4795D01*
X-4455Y-345D01*
X-4815Y55D02*
X-4435Y-325D01*
X-5188Y55D02*
X-4815D01*
X-5218Y25D02*
X-5188Y55D01*
X-5218Y25D02*
X-5215Y28D01*
X-6723Y25D02*
X-5218D01*
X-5090Y-520D02*
X-3780D01*
X-3625Y-5D02*
X-3575Y-55D01*
X-5090Y-1525D02*
Y-520D01*
X-6535Y-20D02*
X-5335D01*
X-6869Y-1105D02*
X-6389Y-1585D01*
X-5495D01*
X-6067Y-1610D02*
X-5647Y-2030D01*
X-6690Y-1610D02*
X-6067D01*
X-6555Y-1020D02*
X-6470Y-1105D01*
X-6425D01*
X-7485Y-1020D02*
X-6555D01*
X-7446Y-1060D02*
X-6580D01*
X-7461Y-1075D02*
X-7446Y-1060D01*
X-7523Y-1075D02*
X-7461D01*
X-7170Y-201D02*
Y75D01*
X-7543Y-1055D02*
X-7523Y-1075D01*
X-7543Y-1055D02*
Y-895D01*
X-7718Y-521D02*
X-7374D01*
X-7280Y-615D01*
X-7015Y65D02*
X-6763D01*
X-5227Y-1610D02*
X-4790D01*
X-5647Y-2030D02*
X-5227Y-1610D01*
D22*
X-6535Y-120D02*
D03*
Y-20D02*
D03*
X-5335Y-120D02*
D03*
Y-20D02*
D03*
X-4825Y-105D02*
D03*
Y-5D02*
D03*
X-3625Y-105D02*
D03*
Y-5D02*
D03*
X-4602Y1740D02*
D03*
X-4520Y1683D02*
D03*
X-5290Y757D02*
D03*
X-5208Y700D02*
D03*
X-7040Y445D02*
D03*
X-7140D02*
D03*
X-7040Y1645D02*
D03*
X-7140D02*
D03*
D23*
X-7720Y630D02*
D03*
D24*
Y430D02*
D03*
X-7280Y-615D02*
D03*
D25*
X-7455Y195D02*
D03*
Y-2D02*
D03*
Y-199D02*
D03*
D26*
X-5330Y2045D02*
D03*
Y1645D02*
D03*
X-6225Y2035D02*
D03*
Y1635D02*
D03*
D27*
X-4790Y-810D02*
D03*
Y-1610D02*
D03*
X-6690D02*
D03*
Y-810D02*
D03*
D28*
X-7718Y-521D02*
D03*
X-7660Y-646D02*
D03*
X-7601Y-771D02*
D03*
X-7543Y-895D02*
D03*
X-7485Y-1020D02*
D03*
X-7436Y-1127D02*
D03*
X-5647Y-2030D02*
D03*
X-5785D02*
D03*
D29*
X-7080Y-615D02*
D03*
D30*
X-7675Y-205D02*
D03*
X-7570Y-200D02*
D03*
X-7580Y175D02*
D03*
X-7735Y230D02*
D03*
X-7255Y385D02*
D03*
X-7510Y-760D02*
D03*
X-3605Y-195D02*
D03*
X-6850Y-655D02*
D03*
X-6890Y-255D02*
D03*
X-4225Y420D02*
D03*
X-6905Y-1425D02*
D03*
X-5325Y1435D02*
D03*
X-3785Y830D02*
D03*
X-5090Y-1525D02*
D03*
X-5495Y-1585D02*
D03*
X-6425Y-1105D02*
D03*
X-6580Y-1060D02*
D03*
X-7025Y-1207D02*
D03*
X-6990Y25D02*
D03*
X-7170Y75D02*
D03*
X-6869Y-1105D02*
D03*
X-6951Y-137D02*
D03*
M02*
