M48
;Layer_Color=9474304
;FILE_FORMAT=2:3
INCH,LZ
;TYPE=PLATED
T1F00S00C0.028
T2F00S00C0.030
T3F00S00C0.031
T4F00S00C0.040
T5F00S00C0.043
T6F00S00C0.067
T7F00S00C0.070
%
T01
X-06905Y-01425
X-07025Y-01207
X-05495Y-01585
X-0509Y-01525
X-03605Y-00195
X-04225Y0042
X-0685Y-00655
X-0658Y-0106
X-06425Y-01105
X-06869
X-0689Y-00255
X-06951Y-00137
X-0699Y00025
X-0717Y00075
X-07255Y00385
X-0758Y00175
X-07735Y0023
X-07675Y-00205
X-0757Y-002
X-0751Y-0076
X-05325Y01435
X-03785Y0083
T02
X-07455Y-00199
Y-00002
Y00195
T03
X-03625Y-00105
Y-00005
X-04825
Y-00105
X-05335Y-0012
Y-0002
X-06535
Y-0012
X-0704Y00445
X-0714
Y01645
X-0704
X-04602Y0174
X-0452Y01683
X-05208Y007
X-0529Y00757
T04
X-05785Y-0203
X-05647
X-07436Y-01127
X-07485Y-0102
X-07543Y-00895
X-07601Y-00771
X-0766Y-00646
X-07718Y-00521
T05
X-0728Y-00615
X-0708
X-0772Y0043
Y0063
T06
X-06225Y01635
X-0533Y01645
Y02045
X-06225Y02035
T07
X-0669Y-0161
X-0479
Y-0081
X-0669
M30
