G04 Layer_Color=65535*
%FSLAX23Y23*%
%MOIN*%
G70*
G01*
G75*
%ADD21C,0.010*%
%ADD31C,0.010*%
%ADD32C,0.008*%
%ADD33C,0.001*%
%ADD34C,0.008*%
%ADD35C,0.000*%
%ADD36R,0.220X0.028*%
D21*
X-5433Y-296D02*
Y156D01*
X-6437Y-296D02*
X-5433D01*
X-6437D02*
Y156D01*
X-5433D01*
X-3723Y-281D02*
Y171D01*
X-4727Y-281D02*
X-3723D01*
X-4727D02*
Y171D01*
X-3723D01*
X-5378Y939D02*
X-5007Y679D01*
X-5378Y939D02*
X-4803Y1761D01*
X-4432Y1501D01*
X-5007Y679D02*
X-4432Y1501D01*
X-7316Y1547D02*
X-6864D01*
Y543D02*
Y1547D01*
X-7316Y543D02*
X-6864D01*
X-7316D02*
Y1547D01*
X-7227Y314D02*
Y374D01*
X-7197D01*
X-7187Y364D01*
Y344D01*
X-7197Y334D01*
X-7227D01*
X-7207D02*
X-7187Y314D01*
X-7137D02*
Y374D01*
X-7167Y344D01*
X-7127D01*
X-7100Y-270D02*
Y-210D01*
X-7070D01*
X-7060Y-220D01*
Y-240D01*
X-7070Y-250D01*
X-7100D01*
X-7080D02*
X-7060Y-270D01*
X-7040Y-220D02*
X-7030Y-210D01*
X-7010D01*
X-7000Y-220D01*
Y-230D01*
X-7010Y-240D01*
X-7020D01*
X-7010D01*
X-7000Y-250D01*
Y-260D01*
X-7010Y-270D01*
X-7030D01*
X-7040Y-260D01*
X-7220Y-10D02*
Y50D01*
X-7190D01*
X-7180Y40D01*
Y20D01*
X-7190Y10D01*
X-7220D01*
X-7200D02*
X-7180Y-10D01*
X-7120D02*
X-7160D01*
X-7120Y30D01*
Y40D01*
X-7130Y50D01*
X-7150D01*
X-7160Y40D01*
X-7087Y309D02*
Y369D01*
X-7057D01*
X-7047Y359D01*
Y339D01*
X-7057Y329D01*
X-7087D01*
X-7067D02*
X-7047Y309D01*
X-7027D02*
X-7007D01*
X-7017D01*
Y369D01*
X-7027Y359D01*
X-7724Y807D02*
X-7734Y817D01*
X-7754D01*
X-7764Y807D01*
Y797D01*
X-7754Y787D01*
X-7734D01*
X-7724Y777D01*
Y767D01*
X-7734Y757D01*
X-7754D01*
X-7764Y767D01*
X-7664Y757D02*
X-7704D01*
X-7664Y797D01*
Y807D01*
X-7674Y817D01*
X-7694D01*
X-7704Y807D01*
X-4947Y1701D02*
X-4958Y1684D01*
X-4956Y1671D01*
X-4923Y1648D01*
X-4909Y1650D01*
X-4898Y1666D01*
X-4900Y1680D01*
X-4933Y1703D01*
X-4947Y1701D01*
X-4898Y1752D02*
X-4912Y1750D01*
X-4924Y1734D01*
X-4921Y1720D01*
X-4889Y1697D01*
X-4875Y1699D01*
X-4863Y1716D01*
X-4866Y1730D01*
X-4823Y1773D02*
X-4846Y1740D01*
X-4856Y1796D01*
X-4864Y1802D01*
X-4878Y1799D01*
X-4889Y1783D01*
X-4887Y1769D01*
X-7280Y-715D02*
X-7290Y-705D01*
X-7310D01*
X-7320Y-715D01*
Y-725D01*
X-7310Y-735D01*
X-7290D01*
X-7280Y-745D01*
Y-755D01*
X-7290Y-765D01*
X-7310D01*
X-7320Y-755D01*
X-7260Y-765D02*
X-7240D01*
X-7250D01*
Y-705D01*
X-7260Y-715D01*
X-6225Y-1870D02*
Y-1830D01*
X-6235Y-1820D01*
X-6255D01*
X-6265Y-1830D01*
Y-1870D01*
X-6255Y-1880D01*
X-6235D01*
X-6245Y-1860D02*
X-6225Y-1880D01*
X-6235D02*
X-6225Y-1870D01*
X-6205Y-1830D02*
X-6195Y-1820D01*
X-6175D01*
X-6165Y-1830D01*
Y-1840D01*
X-6175Y-1850D01*
X-6185D01*
X-6175D01*
X-6165Y-1860D01*
Y-1870D01*
X-6175Y-1880D01*
X-6195D01*
X-6205Y-1870D01*
X-5415Y-1865D02*
Y-1825D01*
X-5425Y-1815D01*
X-5445D01*
X-5455Y-1825D01*
Y-1865D01*
X-5445Y-1875D01*
X-5425D01*
X-5435Y-1855D02*
X-5415Y-1875D01*
X-5425D02*
X-5415Y-1865D01*
X-5355Y-1875D02*
X-5395D01*
X-5355Y-1835D01*
Y-1825D01*
X-5365Y-1815D01*
X-5385D01*
X-5395Y-1825D01*
X-7075Y-510D02*
Y-470D01*
X-7085Y-460D01*
X-7105D01*
X-7115Y-470D01*
Y-510D01*
X-7105Y-520D01*
X-7085D01*
X-7095Y-500D02*
X-7075Y-520D01*
X-7085D02*
X-7075Y-510D01*
X-7055Y-520D02*
X-7035D01*
X-7045D01*
Y-460D01*
X-7055Y-470D01*
X-5880Y-2000D02*
X-5940D01*
Y-1970D01*
X-5930Y-1960D01*
X-5910D01*
X-5900Y-1970D01*
Y-2000D01*
X-5940Y-1940D02*
X-5880D01*
X-5900Y-1920D01*
X-5880Y-1900D01*
X-5940D01*
X-7580Y260D02*
Y320D01*
X-7550D01*
X-7540Y310D01*
Y290D01*
X-7550Y280D01*
X-7580D01*
X-7490Y320D02*
X-7510D01*
X-7520Y310D01*
Y270D01*
X-7510Y260D01*
X-7490D01*
X-7480Y270D01*
Y310D01*
X-7490Y320D01*
X-7460D02*
X-7420D01*
X-7440D01*
Y260D01*
X-7415Y1270D02*
Y1250D01*
X-7405Y1240D01*
X-7365D01*
X-7355Y1250D01*
Y1270D01*
X-7365Y1280D01*
X-7405D01*
X-7415Y1270D01*
X-7405Y1340D02*
X-7415Y1330D01*
Y1310D01*
X-7405Y1300D01*
X-7365D01*
X-7355Y1310D01*
Y1330D01*
X-7365Y1340D01*
X-7355Y1390D02*
X-7415D01*
X-7385Y1360D01*
Y1400D01*
X-6400Y240D02*
X-6420D01*
X-6430Y230D01*
Y190D01*
X-6420Y180D01*
X-6400D01*
X-6390Y190D01*
Y230D01*
X-6400Y240D01*
X-6330Y230D02*
X-6340Y240D01*
X-6360D01*
X-6370Y230D01*
Y190D01*
X-6360Y180D01*
X-6340D01*
X-6330Y190D01*
X-6310Y230D02*
X-6300Y240D01*
X-6280D01*
X-6270Y230D01*
Y220D01*
X-6280Y210D01*
X-6290D01*
X-6280D01*
X-6270Y200D01*
Y190D01*
X-6280Y180D01*
X-6300D01*
X-6310Y190D01*
X-4685Y265D02*
X-4705D01*
X-4715Y255D01*
Y215D01*
X-4705Y205D01*
X-4685D01*
X-4675Y215D01*
Y255D01*
X-4685Y265D01*
X-4615Y255D02*
X-4625Y265D01*
X-4645D01*
X-4655Y255D01*
Y215D01*
X-4645Y205D01*
X-4625D01*
X-4615Y215D01*
X-4595Y205D02*
X-4575D01*
X-4585D01*
Y265D01*
X-4595Y255D01*
X-7461Y-1344D02*
X-7417Y-1385D01*
X-7389Y-1356D01*
X-7376Y-1342D02*
X-7362Y-1327D01*
X-7369Y-1334D01*
X-7412Y-1293D01*
X-7412Y-1307D01*
X-5215Y-640D02*
Y-700D01*
Y-670D01*
X-5175D01*
Y-640D01*
Y-700D01*
X-5155Y-640D02*
Y-680D01*
X-5135Y-700D01*
X-5115Y-680D01*
Y-640D01*
X-5005D02*
X-5025D01*
X-5035Y-650D01*
Y-690D01*
X-5025Y-700D01*
X-5005D01*
X-4995Y-690D01*
Y-650D01*
X-5005Y-640D01*
X-4975D02*
Y-690D01*
X-4965Y-700D01*
X-4945D01*
X-4935Y-690D01*
Y-640D01*
X-4915D02*
X-4875D01*
X-4895D01*
Y-700D01*
X-6410Y1955D02*
X-6350D01*
X-6380D01*
Y1995D01*
X-6410D01*
X-6350D01*
Y2055D02*
Y2015D01*
X-6390Y2055D01*
X-6400D01*
X-6410Y2045D01*
Y2025D01*
X-6400Y2015D01*
X-5150Y2085D02*
X-5210D01*
X-5180D01*
Y2045D01*
X-5150D01*
X-5210D01*
Y2025D02*
Y2005D01*
Y2015D01*
X-5150D01*
X-5160Y2025D01*
X-7080Y-948D02*
Y-1008D01*
X-7050D01*
X-7040Y-998D01*
Y-958D01*
X-7050Y-948D01*
X-7080D01*
X-7020Y-1008D02*
X-7000D01*
X-7010D01*
Y-948D01*
X-7020Y-958D01*
X-7485Y910D02*
X-7495Y920D01*
X-7515D01*
X-7525Y910D01*
Y870D01*
X-7515Y860D01*
X-7495D01*
X-7485Y870D01*
X-7465Y910D02*
X-7455Y920D01*
X-7435D01*
X-7425Y910D01*
Y900D01*
X-7435Y890D01*
X-7445D01*
X-7435D01*
X-7425Y880D01*
Y870D01*
X-7435Y860D01*
X-7455D01*
X-7465Y870D01*
X-7175Y-915D02*
X-7185Y-905D01*
X-7205D01*
X-7215Y-915D01*
Y-955D01*
X-7205Y-965D01*
X-7185D01*
X-7175Y-955D01*
X-7115Y-965D02*
X-7155D01*
X-7115Y-925D01*
Y-915D01*
X-7125Y-905D01*
X-7145D01*
X-7155Y-915D01*
X-7055Y40D02*
X-7065Y50D01*
X-7085D01*
X-7095Y40D01*
Y-0D01*
X-7085Y-10D01*
X-7065D01*
X-7055Y-0D01*
X-7035Y-10D02*
X-7015D01*
X-7025D01*
Y50D01*
X-7035Y40D01*
X-7873Y-435D02*
X-7848Y-490D01*
X-7821Y-478D01*
X-7816Y-464D01*
X-7820Y-455D01*
X-7833Y-450D01*
X-7861Y-463D01*
X-7833Y-450D01*
X-7828Y-437D01*
X-7833Y-428D01*
X-7846Y-423D01*
X-7873Y-435D01*
X-7818Y-411D02*
X-7798Y-456D01*
X-7785Y-461D01*
X-7766Y-453D01*
X-7761Y-440D01*
X-7782Y-394D01*
X-7723Y-378D02*
X-7736Y-373D01*
X-7755Y-382D01*
X-7760Y-395D01*
X-7756Y-404D01*
X-7742Y-409D01*
X-7724Y-401D01*
X-7711Y-406D01*
X-7707Y-415D01*
X-7712Y-428D01*
X-7730Y-436D01*
X-7743Y-431D01*
X-6970Y-1010D02*
X-6980D01*
Y-1000D01*
X-6970D01*
Y-1010D01*
X-5496Y123D02*
Y63D01*
X-5466Y93D01*
X-5506D01*
X-5463Y-250D02*
X-5473Y-260D01*
X-5493D01*
X-5503Y-250D01*
Y-240D01*
X-5493Y-230D01*
X-5483D01*
X-5493D01*
X-5503Y-220D01*
Y-210D01*
X-5493Y-200D01*
X-5473D01*
X-5463Y-210D01*
X-5955Y63D02*
X-5935Y73D01*
X-5915Y93D01*
Y113D01*
X-5925Y123D01*
X-5945D01*
X-5955Y113D01*
Y103D01*
X-5945Y93D01*
X-5915D01*
X-5955Y-260D02*
X-5915D01*
Y-230D01*
X-5935Y-240D01*
X-5945D01*
X-5955Y-230D01*
Y-210D01*
X-5945Y-200D01*
X-5925D01*
X-5915Y-210D01*
X-6404Y123D02*
X-6364D01*
X-6404Y83D01*
Y73D01*
X-6394Y63D01*
X-6374D01*
X-6364Y73D01*
X-6380Y-200D02*
X-6400D01*
X-6390D01*
Y-260D01*
X-6380Y-250D01*
X-3786Y138D02*
Y78D01*
X-3756Y108D01*
X-3796D01*
X-3753Y-235D02*
X-3763Y-245D01*
X-3783D01*
X-3793Y-235D01*
Y-225D01*
X-3783Y-215D01*
X-3773D01*
X-3783D01*
X-3793Y-205D01*
Y-195D01*
X-3783Y-185D01*
X-3763D01*
X-3753Y-195D01*
X-4245Y78D02*
X-4225Y88D01*
X-4205Y108D01*
Y128D01*
X-4215Y138D01*
X-4235D01*
X-4245Y128D01*
Y118D01*
X-4235Y108D01*
X-4205D01*
X-4245Y-245D02*
X-4205D01*
Y-215D01*
X-4225Y-225D01*
X-4235D01*
X-4245Y-215D01*
Y-195D01*
X-4235Y-185D01*
X-4215D01*
X-4205Y-195D01*
X-4694Y138D02*
X-4654D01*
X-4694Y98D01*
Y88D01*
X-4684Y78D01*
X-4664D01*
X-4654Y88D01*
X-4670Y-185D02*
X-4690D01*
X-4680D01*
Y-245D01*
X-4670Y-235D01*
X-4998Y750D02*
X-5048Y785D01*
X-5040Y743D01*
X-5017Y776D01*
X-5323Y936D02*
X-5326Y950D01*
X-5314Y966D01*
X-5300Y969D01*
X-5292Y963D01*
X-5290Y949D01*
X-5296Y941D01*
X-5290Y949D01*
X-5276Y952D01*
X-5268Y946D01*
X-5265Y932D01*
X-5277Y916D01*
X-5291Y913D01*
X-4784Y1160D02*
X-4788Y1138D01*
X-4783Y1110D01*
X-4766Y1099D01*
X-4753Y1101D01*
X-4741Y1118D01*
X-4744Y1132D01*
X-4752Y1137D01*
X-4766Y1135D01*
X-4783Y1110D01*
X-5049Y1346D02*
X-5072Y1313D01*
X-5047Y1296D01*
X-5044Y1318D01*
X-5038Y1326D01*
X-5024Y1328D01*
X-5008Y1317D01*
X-5006Y1303D01*
X-5017Y1287D01*
X-5031Y1284D01*
X-4478Y1494D02*
X-4501Y1461D01*
X-4511Y1517D01*
X-4519Y1522D01*
X-4533Y1520D01*
X-4544Y1503D01*
X-4542Y1490D01*
X-4756Y1659D02*
X-4745Y1675D01*
X-4751Y1667D01*
X-4800Y1702D01*
X-4797Y1688D01*
X-5819Y-1189D02*
X-5859D01*
Y-1219D01*
X-5839Y-1209D01*
X-5829D01*
X-5819Y-1219D01*
Y-1239D01*
X-5829Y-1249D01*
X-5849D01*
X-5859Y-1239D01*
X-5799Y-1189D02*
Y-1229D01*
X-5779Y-1249D01*
X-5759Y-1229D01*
Y-1189D01*
X-5739D02*
Y-1229D01*
X-5719Y-1249D01*
X-5699Y-1229D01*
Y-1189D01*
X-5679Y-1249D02*
X-5659D01*
X-5669D01*
Y-1189D01*
X-5679Y-1199D01*
X-5629D02*
X-5619Y-1189D01*
X-5599D01*
X-5589Y-1199D01*
Y-1239D01*
X-5599Y-1249D01*
X-5619D01*
X-5629Y-1239D01*
Y-1199D01*
X-7283Y1484D02*
X-7223D01*
X-7253Y1514D01*
Y1474D01*
X-6910Y1517D02*
X-6900Y1507D01*
Y1487D01*
X-6910Y1477D01*
X-6920D01*
X-6930Y1487D01*
Y1497D01*
Y1487D01*
X-6940Y1477D01*
X-6950D01*
X-6960Y1487D01*
Y1507D01*
X-6950Y1517D01*
X-7223Y1025D02*
X-7233Y1045D01*
X-7253Y1065D01*
X-7273D01*
X-7283Y1055D01*
Y1035D01*
X-7273Y1025D01*
X-7263D01*
X-7253Y1035D01*
Y1065D01*
X-6900Y1025D02*
Y1065D01*
X-6930D01*
X-6920Y1045D01*
Y1035D01*
X-6930Y1025D01*
X-6950D01*
X-6960Y1035D01*
Y1055D01*
X-6950Y1065D01*
X-7283Y576D02*
Y616D01*
X-7243Y576D01*
X-7233D01*
X-7223Y586D01*
Y606D01*
X-7233Y616D01*
X-6960Y600D02*
Y580D01*
Y590D01*
X-6900D01*
X-6910Y600D01*
D31*
X-7715Y717D02*
G03*
X-7715Y717I-5J0D01*
G01*
X-6988Y-615D02*
G03*
X-6988Y-615I-5J0D01*
G01*
X-7590Y408D02*
Y825D01*
X-7370Y408D02*
Y825D01*
X-7590D02*
X-7370D01*
X-7590Y408D02*
X-7370D01*
D32*
X-6148Y-1905D02*
G03*
X-6123Y-1905I13J0D01*
G01*
X-5338Y-1895D02*
G03*
X-5313Y-1895I13J0D01*
G01*
X-7292Y-315D02*
G03*
X-7267Y-315I13J0D01*
G01*
X-7222Y-119D02*
Y-87D01*
X-7128Y-119D02*
Y-87D01*
X-7003Y-378D02*
Y-346D01*
X-7097Y-378D02*
Y-346D01*
X-7030Y-119D02*
Y-87D01*
X-7090Y-119D02*
Y-87D01*
X-7087Y182D02*
Y214D01*
X-6993Y182D02*
Y214D01*
X-7133Y187D02*
Y219D01*
X-7227Y187D02*
Y219D01*
X-7670Y361D02*
Y699D01*
X-7770Y361D02*
X-7670D01*
X-7770D02*
Y699D01*
X-7670D01*
X-7349Y-665D02*
X-7011D01*
X-7349D02*
Y-565D01*
X-7011D01*
Y-665D02*
Y-565D01*
X-7148Y-815D02*
X-7116D01*
X-7148Y-875D02*
X-7116D01*
X-6178Y-2105D02*
Y-1905D01*
Y-2105D02*
X-6092D01*
Y-1905D01*
X-6123D02*
X-6092D01*
X-6178D02*
X-6148D01*
X-5368Y-2095D02*
Y-1895D01*
Y-2095D02*
X-5282D01*
Y-1895D01*
X-5313D02*
X-5282D01*
X-5368D02*
X-5338D01*
X-7323Y-515D02*
Y-315D01*
Y-515D02*
X-7237D01*
Y-315D01*
X-7267D02*
X-7237D01*
X-7323D02*
X-7292D01*
X-6964Y-1156D02*
Y-1060D01*
X-7086Y-1156D02*
Y-1060D01*
Y-1353D02*
Y-1251D01*
X-6964Y-1353D02*
Y-1251D01*
X-7068Y-1042D02*
X-6982D01*
X-7086Y-1060D02*
X-7068Y-1042D01*
X-6982D02*
X-6964Y-1060D01*
X-7086Y-1353D02*
X-6964D01*
D33*
X-7592Y-250D02*
Y245D01*
X-7318D01*
Y-250D02*
Y245D01*
X-7592Y-250D02*
X-7318D01*
X-7529Y-1243D02*
X-7286Y-1130D01*
X-7621Y-411D02*
X-7286Y-1130D01*
X-7864Y-524D02*
X-7621Y-411D01*
X-7864Y-524D02*
X-7529Y-1243D01*
X-5845Y-2164D02*
Y-1896D01*
X-5585D01*
Y-2164D02*
Y-1896D01*
X-5845Y-2164D02*
X-5585D01*
D34*
X-5410Y1587D02*
Y2107D01*
Y1587D02*
X-5250D01*
Y2107D01*
X-5410D02*
X-5250D01*
X-6305Y1577D02*
Y2097D01*
Y1577D02*
X-6145D01*
Y2097D01*
X-6305D02*
X-6145D01*
X-7292Y67D02*
X-7259D01*
X-7242Y50D01*
X-7259Y34D01*
X-7292D01*
X-7267D01*
Y67D01*
X-7242Y17D02*
X-7292D01*
Y-8D01*
X-7284Y-16D01*
X-7250D01*
X-7242Y-8D01*
Y17D01*
Y-66D02*
Y-50D01*
Y-58D01*
X-7284D01*
X-7292Y-50D01*
Y-41D01*
X-7284Y-33D01*
X-7251Y-166D02*
X-7243Y-158D01*
Y-141D01*
X-7251Y-133D01*
X-7285D01*
X-7293Y-141D01*
Y-158D01*
X-7285Y-166D01*
X-7268D01*
Y-150D01*
X-7293Y-183D02*
X-7243D01*
X-7293Y-216D01*
X-7243D01*
Y-233D02*
X-7293D01*
Y-258D01*
X-7285Y-266D01*
X-7251D01*
X-7243Y-258D01*
Y-233D01*
X-7250Y206D02*
Y239D01*
X-7275D01*
X-7267Y222D01*
Y214D01*
X-7275Y206D01*
X-7292D01*
X-7300Y214D01*
Y231D01*
X-7292Y239D01*
X-7250Y189D02*
X-7283D01*
X-7300Y172D01*
X-7283Y156D01*
X-7250D01*
X-7525Y-417D02*
X-7539Y-386D01*
X-7561Y-397D01*
X-7547Y-409D01*
X-7543Y-416D01*
X-7547Y-427D01*
X-7563Y-434D01*
X-7574Y-430D01*
X-7581Y-415D01*
X-7577Y-404D01*
X-7518Y-432D02*
X-7548Y-446D01*
X-7556Y-468D01*
X-7534Y-476D01*
X-7504Y-462D01*
X-7482Y-527D02*
X-7478Y-516D01*
X-7485Y-501D01*
X-7497Y-497D01*
X-7527Y-511D01*
X-7531Y-522D01*
X-7524Y-537D01*
X-7513Y-541D01*
X-7498Y-534D01*
X-7505Y-519D01*
X-7513Y-560D02*
X-7468Y-539D01*
X-7499Y-590D01*
X-7454Y-569D01*
X-7447Y-584D02*
X-7492Y-605D01*
X-7481Y-628D01*
X-7470Y-632D01*
X-7440Y-618D01*
X-7436Y-607D01*
X-7447Y-584D01*
X-7403Y-661D02*
X-7448Y-682D01*
X-7434Y-712D01*
X-7389Y-802D02*
X-7344Y-781D01*
X-7333Y-804D01*
X-7337Y-815D01*
X-7352Y-822D01*
X-7363Y-818D01*
X-7374Y-795D01*
X-7367Y-810D02*
X-7375Y-832D01*
X-7352Y-879D02*
X-7307Y-858D01*
X-7296Y-880D01*
X-7300Y-891D01*
X-7316Y-898D01*
X-7327Y-894D01*
X-7337Y-872D01*
X-7286Y-903D02*
X-7331Y-924D01*
X-7309Y-932D01*
X-7317Y-954D01*
X-7272Y-933D01*
X-7310Y-969D02*
X-7265Y-948D01*
X-7273Y-970D01*
X-7251Y-978D01*
X-7296Y-999D01*
X-7283Y-1014D02*
X-7252Y-1000D01*
X-7230Y-1008D01*
X-7238Y-1030D01*
X-7269Y-1044D01*
X-7246Y-1034D01*
X-7260Y-1003D01*
X-7216Y-1038D02*
X-7261Y-1059D01*
X-7251Y-1082D01*
X-7240Y-1086D01*
X-7210Y-1072D01*
X-7206Y-1061D01*
X-7216Y-1038D01*
X-7181Y-1114D02*
X-7188Y-1098D01*
X-7185Y-1106D01*
X-7222Y-1124D01*
X-7233Y-1120D01*
X-7237Y-1112D01*
X-7233Y-1101D01*
X-5799Y-1825D02*
X-5832D01*
Y-1850D01*
X-5815Y-1842D01*
X-5807D01*
X-5799Y-1850D01*
Y-1867D01*
X-5807Y-1875D01*
X-5824D01*
X-5832Y-1867D01*
X-5782Y-1825D02*
Y-1858D01*
X-5765Y-1875D01*
X-5749Y-1858D01*
Y-1825D01*
X-5679Y-1828D02*
X-5687Y-1820D01*
X-5704D01*
X-5712Y-1828D01*
Y-1862D01*
X-5704Y-1870D01*
X-5687D01*
X-5679Y-1862D01*
Y-1845D01*
X-5695D01*
X-5662Y-1870D02*
Y-1820D01*
X-5629Y-1870D01*
Y-1820D01*
X-5612D02*
Y-1870D01*
X-5587D01*
X-5579Y-1862D01*
Y-1828D01*
X-5587Y-1820D01*
X-5612D01*
D35*
X-6610Y-730D02*
X-4870D01*
X-6610Y-1690D02*
Y-730D01*
Y-1690D02*
X-4870D01*
Y-730D01*
D36*
X-7480Y422D02*
D03*
M02*
