G04 Layer_Color=8388736*
%FSLAX23Y23*%
%MOIN*%
G70*
G01*
G75*
%ADD37R,0.110X0.051*%
%ADD38R,0.075X0.051*%
G04:AMPARAMS|DCode=39|XSize=165mil|YSize=87mil|CornerRadius=24mil|HoleSize=0mil|Usage=FLASHONLY|Rotation=270.000|XOffset=0mil|YOffset=0mil|HoleType=Round|Shape=RoundedRectangle|*
%AMROUNDEDRECTD39*
21,1,0.165,0.039,0,0,270.0*
21,1,0.118,0.087,0,0,270.0*
1,1,0.047,-0.020,-0.059*
1,1,0.047,-0.020,0.059*
1,1,0.047,0.020,0.059*
1,1,0.047,0.020,-0.059*
%
%ADD39ROUNDEDRECTD39*%
G04:AMPARAMS|DCode=40|XSize=165mil|YSize=87mil|CornerRadius=24mil|HoleSize=0mil|Usage=FLASHONLY|Rotation=145.000|XOffset=0mil|YOffset=0mil|HoleType=Round|Shape=RoundedRectangle|*
%AMROUNDEDRECTD40*
21,1,0.165,0.039,0,0,145.0*
21,1,0.118,0.087,0,0,145.0*
1,1,0.047,-0.037,0.050*
1,1,0.047,0.060,-0.018*
1,1,0.047,0.037,-0.050*
1,1,0.047,-0.060,0.018*
%
%ADD40ROUNDEDRECTD40*%
G04:AMPARAMS|DCode=41|XSize=228mil|YSize=128mil|CornerRadius=0mil|HoleSize=0mil|Usage=FLASHONLY|Rotation=230.000|XOffset=0mil|YOffset=0mil|HoleType=Round|Shape=Rectangle|*
%AMROTATEDRECTD41*
4,1,4,0.024,0.128,0.122,0.046,-0.024,-0.128,-0.122,-0.046,0.024,0.128,0.0*
%
%ADD41ROTATEDRECTD41*%

%ADD42R,0.108X0.117*%
%ADD43R,0.051X0.075*%
G04:AMPARAMS|DCode=44|XSize=165mil|YSize=87mil|CornerRadius=24mil|HoleSize=0mil|Usage=FLASHONLY|Rotation=0.000|XOffset=0mil|YOffset=0mil|HoleType=Round|Shape=RoundedRectangle|*
%AMROUNDEDRECTD44*
21,1,0.165,0.039,0,0,0.0*
21,1,0.118,0.087,0,0,0.0*
1,1,0.047,0.059,-0.020*
1,1,0.047,-0.059,-0.020*
1,1,0.047,-0.059,0.020*
1,1,0.047,0.059,0.020*
%
%ADD44ROUNDEDRECTD44*%
%ADD45O,0.077X0.034*%
%ADD46R,0.077X0.034*%
%ADD47R,0.099X0.099*%
%ADD48C,0.067*%
%ADD49R,0.081X0.081*%
%ADD50C,0.081*%
%ADD51C,0.068*%
%ADD52R,0.098X0.098*%
%ADD53R,0.108X0.108*%
%ADD54C,0.088*%
%ADD55R,0.081X0.081*%
%ADD56C,0.058*%
D37*
X-7175Y-156D02*
D03*
Y-50D02*
D03*
X-7050Y-309D02*
D03*
Y-415D02*
D03*
X-7040Y145D02*
D03*
Y251D02*
D03*
X-7180Y256D02*
D03*
Y150D02*
D03*
D38*
X-7060Y-50D02*
D03*
Y-156D02*
D03*
D39*
X-5935Y280D02*
D03*
Y-420D02*
D03*
X-4225Y295D02*
D03*
Y-405D02*
D03*
D40*
X-4618Y1019D02*
D03*
X-5192Y1421D02*
D03*
D41*
X-7292Y-1375D02*
D03*
X-7030Y-1595D02*
D03*
D42*
X-7480Y755D02*
D03*
Y501D02*
D03*
D43*
X-7185Y-845D02*
D03*
X-7079D02*
D03*
D44*
X-7440Y1045D02*
D03*
X-6740D02*
D03*
D45*
X-6025Y-2080D02*
D03*
Y-2030D02*
D03*
Y-1980D02*
D03*
Y-1930D02*
D03*
X-6245Y-2080D02*
D03*
Y-2030D02*
D03*
Y-1980D02*
D03*
X-5215Y-2070D02*
D03*
Y-2020D02*
D03*
Y-1970D02*
D03*
Y-1920D02*
D03*
X-5435Y-2070D02*
D03*
Y-2020D02*
D03*
Y-1970D02*
D03*
X-7170Y-490D02*
D03*
Y-440D02*
D03*
Y-390D02*
D03*
Y-340D02*
D03*
X-7390Y-490D02*
D03*
Y-440D02*
D03*
Y-390D02*
D03*
D46*
X-6245Y-1930D02*
D03*
X-5435Y-1920D02*
D03*
X-7390Y-340D02*
D03*
D47*
X-7025Y-1115D02*
D03*
Y-1292D02*
D03*
D48*
X-6535Y-120D02*
D03*
Y-20D02*
D03*
X-5335Y-120D02*
D03*
Y-20D02*
D03*
X-4825Y-105D02*
D03*
Y-5D02*
D03*
X-3625Y-105D02*
D03*
Y-5D02*
D03*
X-4602Y1740D02*
D03*
X-4520Y1683D02*
D03*
X-5290Y757D02*
D03*
X-5208Y700D02*
D03*
X-7040Y445D02*
D03*
X-7140D02*
D03*
X-7040Y1645D02*
D03*
X-7140D02*
D03*
D49*
X-7720Y630D02*
D03*
D50*
Y430D02*
D03*
X-7280Y-615D02*
D03*
D51*
X-7455Y195D02*
D03*
Y-2D02*
D03*
Y-199D02*
D03*
D52*
X-5330Y2045D02*
D03*
Y1645D02*
D03*
X-6225Y2035D02*
D03*
Y1635D02*
D03*
D53*
X-4790Y-810D02*
D03*
Y-1610D02*
D03*
X-6690D02*
D03*
Y-810D02*
D03*
D54*
X-7718Y-521D02*
D03*
X-7660Y-646D02*
D03*
X-7601Y-771D02*
D03*
X-7543Y-895D02*
D03*
X-7485Y-1020D02*
D03*
X-7436Y-1127D02*
D03*
X-5647Y-2030D02*
D03*
X-5785D02*
D03*
D55*
X-7080Y-615D02*
D03*
D56*
X-7675Y-205D02*
D03*
X-7570Y-200D02*
D03*
X-7580Y175D02*
D03*
X-7735Y230D02*
D03*
X-7255Y385D02*
D03*
X-7510Y-760D02*
D03*
X-3605Y-195D02*
D03*
X-6850Y-655D02*
D03*
X-6890Y-255D02*
D03*
X-4225Y420D02*
D03*
X-6905Y-1425D02*
D03*
X-5325Y1435D02*
D03*
X-3785Y830D02*
D03*
X-5090Y-1525D02*
D03*
X-5495Y-1585D02*
D03*
X-6425Y-1105D02*
D03*
X-6580Y-1060D02*
D03*
X-7025Y-1207D02*
D03*
X-6990Y25D02*
D03*
X-7170Y75D02*
D03*
X-6869Y-1105D02*
D03*
X-6951Y-137D02*
D03*
M02*
