G04 Layer_Physical_Order=1*
G04 Layer_Color=255*
%FSLAX23Y23*%
%MOIN*%
G70*
G01*
G75*
%ADD10R,0.102X0.043*%
%ADD11R,0.067X0.043*%
G04:AMPARAMS|DCode=12|XSize=157mil|YSize=79mil|CornerRadius=20mil|HoleSize=0mil|Usage=FLASHONLY|Rotation=270.000|XOffset=0mil|YOffset=0mil|HoleType=Round|Shape=RoundedRectangle|*
%AMROUNDEDRECTD12*
21,1,0.157,0.039,0,0,270.0*
21,1,0.118,0.079,0,0,270.0*
1,1,0.039,-0.020,-0.059*
1,1,0.039,-0.020,0.059*
1,1,0.039,0.020,0.059*
1,1,0.039,0.020,-0.059*
%
%ADD12ROUNDEDRECTD12*%
G04:AMPARAMS|DCode=13|XSize=157mil|YSize=79mil|CornerRadius=20mil|HoleSize=0mil|Usage=FLASHONLY|Rotation=145.000|XOffset=0mil|YOffset=0mil|HoleType=Round|Shape=RoundedRectangle|*
%AMROUNDEDRECTD13*
21,1,0.157,0.039,0,0,145.0*
21,1,0.118,0.079,0,0,145.0*
1,1,0.039,-0.037,0.050*
1,1,0.039,0.060,-0.018*
1,1,0.039,0.037,-0.050*
1,1,0.039,-0.060,0.018*
%
%ADD13ROUNDEDRECTD13*%
G04:AMPARAMS|DCode=14|XSize=220mil|YSize=120mil|CornerRadius=0mil|HoleSize=0mil|Usage=FLASHONLY|Rotation=230.000|XOffset=0mil|YOffset=0mil|HoleType=Round|Shape=Rectangle|*
%AMROTATEDRECTD14*
4,1,4,0.025,0.123,0.117,0.046,-0.025,-0.123,-0.117,-0.046,0.025,0.123,0.0*
%
%ADD14ROTATEDRECTD14*%

%ADD15R,0.100X0.109*%
%ADD16R,0.043X0.067*%
G04:AMPARAMS|DCode=17|XSize=157mil|YSize=79mil|CornerRadius=20mil|HoleSize=0mil|Usage=FLASHONLY|Rotation=0.000|XOffset=0mil|YOffset=0mil|HoleType=Round|Shape=RoundedRectangle|*
%AMROUNDEDRECTD17*
21,1,0.157,0.039,0,0,0.0*
21,1,0.118,0.079,0,0,0.0*
1,1,0.039,0.059,-0.020*
1,1,0.039,-0.059,-0.020*
1,1,0.039,-0.059,0.020*
1,1,0.039,0.059,0.020*
%
%ADD17ROUNDEDRECTD17*%
%ADD18O,0.069X0.026*%
%ADD19R,0.069X0.026*%
%ADD20R,0.091X0.091*%
%ADD21C,0.010*%
%ADD22C,0.059*%
%ADD23R,0.073X0.073*%
%ADD24C,0.073*%
%ADD25C,0.060*%
%ADD26R,0.090X0.090*%
%ADD27R,0.100X0.100*%
%ADD28C,0.080*%
%ADD29R,0.073X0.073*%
%ADD30C,0.050*%
D10*
X-7175Y-156D02*
D03*
Y-50D02*
D03*
X-7050Y-309D02*
D03*
Y-415D02*
D03*
X-7040Y145D02*
D03*
Y251D02*
D03*
X-7180Y256D02*
D03*
Y150D02*
D03*
D11*
X-7060Y-50D02*
D03*
Y-156D02*
D03*
D12*
X-5935Y280D02*
D03*
Y-420D02*
D03*
X-4225Y295D02*
D03*
Y-405D02*
D03*
D13*
X-4618Y1019D02*
D03*
X-5192Y1421D02*
D03*
D14*
X-7292Y-1375D02*
D03*
X-7030Y-1595D02*
D03*
D15*
X-7480Y755D02*
D03*
Y501D02*
D03*
D16*
X-7185Y-845D02*
D03*
X-7079D02*
D03*
D17*
X-7440Y1045D02*
D03*
X-6740D02*
D03*
D18*
X-6025Y-2080D02*
D03*
Y-2030D02*
D03*
Y-1980D02*
D03*
Y-1930D02*
D03*
X-6245Y-2080D02*
D03*
Y-2030D02*
D03*
Y-1980D02*
D03*
X-5215Y-2070D02*
D03*
Y-2020D02*
D03*
Y-1970D02*
D03*
Y-1920D02*
D03*
X-5435Y-2070D02*
D03*
Y-2020D02*
D03*
Y-1970D02*
D03*
X-7170Y-490D02*
D03*
Y-440D02*
D03*
Y-390D02*
D03*
Y-340D02*
D03*
X-7390Y-490D02*
D03*
Y-440D02*
D03*
Y-390D02*
D03*
D19*
X-6245Y-1930D02*
D03*
X-5435Y-1920D02*
D03*
X-7390Y-340D02*
D03*
D20*
X-7025Y-1115D02*
D03*
Y-1292D02*
D03*
D21*
X-4669Y1105D02*
X-4565D01*
X-4714Y956D02*
Y1060D01*
X-4960Y710D02*
X-4714Y956D01*
X-4565Y1105D02*
X-4370Y1300D01*
X-4714Y1060D02*
X-4669Y1105D01*
X-4370Y1300D02*
Y1533D01*
X-5198Y710D02*
X-4960D01*
X-4975Y645D02*
X-4620Y1000D01*
X-4520Y1683D02*
X-4370Y1533D01*
X-4620Y1000D02*
Y1010D01*
X-5216Y645D02*
X-4975D01*
X-5320Y1430D02*
Y1635D01*
X-3690Y-115D02*
X-3608Y-198D01*
X-5290Y719D02*
X-5216Y645D01*
X-5290Y719D02*
Y755D01*
X-7050Y220D02*
Y255D01*
X-7455Y205D02*
X-7110D01*
X-7055Y-390D02*
X-7045Y-400D01*
X-7170Y-390D02*
X-7055D01*
X-7060Y-279D02*
X-7045Y-294D01*
X-7060Y-279D02*
Y-250D01*
X-7105Y-360D02*
X-6995D01*
X-4793Y-813D02*
X-4790Y-811D01*
X-4227Y-417D01*
X-7050Y85D02*
Y145D01*
X-7180Y256D02*
Y305D01*
Y150D02*
X-7170Y140D01*
Y75D02*
Y140D01*
X-7110Y-49D02*
Y205D01*
Y-49D02*
X-7061D01*
X-7110Y205D02*
X-7075Y195D01*
X-7175Y-50D02*
X-7174Y-49D01*
X-7110D01*
X-7175Y-156D02*
X-7134Y-115D01*
X-7061Y-49D02*
X-7060Y-50D01*
X-7185Y-151D02*
X-7184Y-150D01*
X-7060Y-185D02*
Y-156D01*
X-7134Y-115D02*
X-7031D01*
X-6992Y-76D01*
X-6590Y-1490D02*
Y-1060D01*
X-6295Y-1980D02*
X-6245D01*
X-7625Y-546D02*
Y496D01*
X-7170Y-490D02*
Y-440D01*
Y-390D02*
Y-340D01*
X-7185Y-1132D02*
Y-845D01*
Y-739D01*
X-6025Y-1980D02*
Y-1930D01*
X-7635Y614D02*
Y1005D01*
Y614D02*
X-7419D01*
X-7415Y610D02*
X-7395Y590D01*
X-7419Y614D02*
X-7415Y610D01*
X-7015Y-250D02*
X-6991Y-226D01*
X-4225Y295D02*
Y420D01*
X-5301Y1420D02*
X-5190D01*
X-6967Y-96D02*
X-6934D01*
X-6840Y-190D01*
Y-420D02*
Y-190D01*
X-7780Y520D02*
X-7720Y580D01*
X-7780Y275D02*
Y520D01*
Y275D02*
X-7735Y230D01*
X-7625Y496D02*
X-7485D01*
X-7625Y-546D02*
X-7510Y-661D01*
X-7500Y-622D02*
Y-270D01*
X-7570Y-200D02*
X-7500Y-270D01*
X-7720Y430D02*
X-7675Y385D01*
Y-205D02*
Y385D01*
X-7430Y-1080D02*
Y-692D01*
X-7436Y-1086D02*
X-7430Y-1080D01*
X-7436Y-1127D02*
Y-1086D01*
X-7455Y-2D02*
Y35D01*
X-7580Y160D02*
X-7455Y35D01*
X-7580Y160D02*
Y175D01*
X-7720Y580D02*
Y630D01*
X-7525Y199D02*
Y260D01*
X-7395Y390D01*
X-7525Y199D02*
X-7410Y84D01*
X-7395Y390D02*
X-7390Y385D01*
X-7395Y390D02*
Y590D01*
X-7390Y385D02*
X-7255D01*
X-7485Y496D02*
X-7480Y501D01*
Y755D02*
X-7415Y690D01*
Y610D02*
Y690D01*
X-7635Y1005D02*
X-7595Y1045D01*
X-5520Y-1975D02*
X-5475Y-2020D01*
X-7510Y-760D02*
Y-661D01*
X-6245Y-2030D02*
X-6233D01*
X-6142Y-1881D02*
X-5906D01*
X-6520Y-1503D02*
X-6142Y-1881D01*
X-7595Y1045D02*
X-7440D01*
X-7180Y305D02*
X-7040Y445D01*
X-3608Y-198D02*
X-3605Y-195D01*
X-3690Y-115D02*
Y630D01*
X-6840Y-420D02*
X-6175Y-1085D01*
X-5733Y-1525D02*
X-5090D01*
X-6173Y-1085D02*
X-5733Y-1525D01*
X-6175Y-1085D02*
X-6173D01*
X-6639Y-655D02*
X-6500Y-794D01*
X-6850Y-655D02*
X-6639D01*
X-6890Y-705D02*
X-6617D01*
X-7038Y-725D02*
X-6626D01*
X-6520Y-1503D02*
Y-802D01*
X-6617Y-705D02*
X-6520Y-802D01*
X-6890Y-705D02*
Y-255D01*
X-7242Y-1425D02*
X-6905D01*
X-7292Y-1375D02*
X-7242Y-1425D01*
X-7318Y-1265D02*
X-7185Y-1132D01*
X-7436Y-1265D02*
X-7318D01*
X-6225Y1635D02*
Y2035D01*
X-5325Y1435D02*
X-5320Y1430D01*
Y1635D02*
X-5290Y1605D01*
X-5330Y1645D02*
X-5320Y1635D01*
X-5330Y1645D02*
Y2045D01*
X-5320Y1430D02*
X-5301Y1420D01*
X-3785Y725D02*
Y830D01*
Y725D02*
X-3690Y630D01*
X-4225Y-405D02*
X-4220Y-410D01*
X-6579Y-76D02*
X-6535Y-120D01*
X-6992Y-76D02*
X-6579D01*
X-7075Y195D02*
X-7050Y220D01*
X-6991Y-120D02*
X-6967Y-96D01*
X-6991Y-226D02*
Y-120D01*
X-6995Y-360D02*
X-6951Y-316D01*
Y-137D01*
X-6182Y-1105D02*
X-5355Y-1932D01*
Y-2024D02*
Y-1932D01*
X-5401Y-2070D02*
X-5355Y-2024D01*
X-6425Y-1105D02*
X-6182D01*
X-5153Y-2048D02*
Y-1912D01*
X-5175Y-2070D02*
X-5153Y-2048D01*
X-5480Y-1585D02*
X-5153Y-1912D01*
X-5495Y-1585D02*
X-5480D01*
X-5475Y-2020D02*
X-5435D01*
X-6500Y-1135D02*
Y-794D01*
X-6540Y-1512D02*
Y-811D01*
X-6500Y-1135D02*
X-5660Y-1975D01*
X-6540Y-1512D02*
X-6176Y-1876D01*
X-6625Y-1545D02*
Y-754D01*
X-6626Y-725D02*
X-6540Y-811D01*
X-6755Y-745D02*
X-6634D01*
X-6625Y-754D01*
X-5660Y-1975D02*
X-5520D01*
X-5812D02*
X-5762D01*
X-5906Y-1881D02*
X-5812Y-1975D01*
X-5730Y-2078D02*
Y-2007D01*
X-5762Y-1975D02*
X-5730Y-2007D01*
X-6081Y-1901D02*
X-5914D01*
X-6172Y-1992D02*
X-6081Y-1901D01*
X-6233Y-2030D02*
X-6176Y-1973D01*
Y-1876D01*
X-6370Y-1930D02*
X-6245D01*
X-6590Y-1060D02*
X-6580D01*
X-6590Y-1490D02*
X-6196Y-1884D01*
Y-1965D02*
Y-1884D01*
X-7079Y-845D02*
Y-766D01*
X-7038Y-725D01*
X-7500Y-622D02*
X-7430Y-692D01*
X-6690Y-1610D02*
X-6625Y-1545D01*
X-6755Y-1089D02*
Y-745D01*
X-6958Y-1292D02*
X-6755Y-1089D01*
X-7025Y-1292D02*
X-6958D01*
X-7074Y-199D02*
X-7060Y-185D01*
X-7455Y-199D02*
X-7074D01*
X-7423Y-340D02*
X-7390D01*
X-7455Y-320D02*
X-7423Y-340D01*
X-7455Y-320D02*
Y-199D01*
X-7025Y-1207D02*
Y-1115D01*
X-7050Y85D02*
X-6990Y25D01*
X-7060Y-250D02*
X-7015D01*
X-6025Y-2030D02*
X-5984D01*
X-5905Y-2109D01*
X-5761D01*
X-5730Y-2078D01*
X-5435Y-2070D02*
X-5401D01*
X-6245Y-1980D02*
X-6211D01*
X-6196Y-1965D01*
X-7506Y-1195D02*
X-7436Y-1265D01*
X-7506Y-1195D02*
Y-1119D01*
X-7660Y-965D02*
X-7506Y-1119D01*
X-7660Y-965D02*
Y-646D01*
X-5215Y-2070D02*
X-5175D01*
X-7015Y-1105D02*
X-6869D01*
X-7025Y-1115D02*
X-7015Y-1105D01*
X-7435Y-490D02*
X-7390D01*
X-7457Y-468D02*
X-7435Y-490D01*
X-7457Y-468D02*
Y-405D01*
X-7442Y-390D01*
X-7390D01*
X-7477Y-394D02*
X-7423Y-340D01*
X-7477Y-612D02*
Y-394D01*
Y-612D02*
X-7419Y-670D01*
X-7254D01*
X-7185Y-739D01*
X-7410Y-154D02*
Y84D01*
X-7455Y-199D02*
X-7410Y-154D01*
X-7390Y-440D02*
X-7355D01*
X-7280Y-515D01*
Y-615D02*
Y-515D01*
X-5914Y-1901D02*
X-5785Y-2030D01*
X-7109Y-845D02*
X-7079D01*
X-7119Y-835D02*
X-7109Y-845D01*
X-7119Y-835D02*
Y-776D01*
X-7280Y-615D02*
X-7119Y-776D01*
X-6690Y-1610D02*
X-6370Y-1930D01*
X-6690Y-1426D02*
Y-810D01*
X-6859Y-1595D02*
X-6690Y-1426D01*
X-7030Y-1595D02*
X-6859D01*
X-7185Y-1132D02*
X-7025Y-1292D01*
X-6299Y-1984D02*
X-6295Y-1980D01*
X-6299Y-2066D02*
Y-1984D01*
Y-2066D02*
X-6285Y-2080D01*
X-6245D01*
X-5215Y-2070D02*
Y-2020D01*
X-7125Y-340D02*
X-7105Y-360D01*
X-7170Y-340D02*
X-7125D01*
X-7170Y-440D02*
Y-390D01*
X-6025Y-2080D02*
Y-2030D01*
Y-1980D01*
X-6740Y1045D02*
X-6124D01*
X-6122D01*
X-6227Y1627D02*
X-6124Y1045D01*
X-4220Y-435D02*
Y-410D01*
X-5935Y-420D02*
X-5820Y-535D01*
X-4793Y-813D02*
X-4790Y-810D01*
X-5820Y-535D02*
X-5024Y-870D01*
X-4850D01*
X-4793Y-813D01*
X-5997Y323D02*
X-5935Y280D01*
X-6124Y1045D02*
X-5997Y323D01*
D22*
X-6535Y-120D02*
D03*
Y-20D02*
D03*
X-5335Y-120D02*
D03*
Y-20D02*
D03*
X-4825Y-105D02*
D03*
Y-5D02*
D03*
X-3625Y-105D02*
D03*
Y-5D02*
D03*
X-4602Y1740D02*
D03*
X-4520Y1683D02*
D03*
X-5290Y757D02*
D03*
X-5208Y700D02*
D03*
X-7040Y445D02*
D03*
X-7140D02*
D03*
X-7040Y1645D02*
D03*
X-7140D02*
D03*
D23*
X-7720Y630D02*
D03*
D24*
Y430D02*
D03*
X-7280Y-615D02*
D03*
D25*
X-7455Y195D02*
D03*
Y-2D02*
D03*
Y-199D02*
D03*
D26*
X-5330Y2045D02*
D03*
Y1645D02*
D03*
X-6225Y2035D02*
D03*
Y1635D02*
D03*
D27*
X-4790Y-810D02*
D03*
Y-1610D02*
D03*
X-6690D02*
D03*
Y-810D02*
D03*
D28*
X-7718Y-521D02*
D03*
X-7660Y-646D02*
D03*
X-7601Y-771D02*
D03*
X-7543Y-895D02*
D03*
X-7485Y-1020D02*
D03*
X-7436Y-1127D02*
D03*
X-5647Y-2030D02*
D03*
X-5785D02*
D03*
D29*
X-7080Y-615D02*
D03*
D30*
X-7675Y-205D02*
D03*
X-7570Y-200D02*
D03*
X-7580Y175D02*
D03*
X-7735Y230D02*
D03*
X-7255Y385D02*
D03*
X-7510Y-760D02*
D03*
X-3605Y-195D02*
D03*
X-6850Y-655D02*
D03*
X-6890Y-255D02*
D03*
X-4225Y420D02*
D03*
X-6905Y-1425D02*
D03*
X-5325Y1435D02*
D03*
X-3785Y830D02*
D03*
X-5090Y-1525D02*
D03*
X-5495Y-1585D02*
D03*
X-6425Y-1105D02*
D03*
X-6580Y-1060D02*
D03*
X-7025Y-1207D02*
D03*
X-6990Y25D02*
D03*
X-7170Y75D02*
D03*
X-6869Y-1105D02*
D03*
X-6951Y-137D02*
D03*
M02*
