G04 Layer_Color=16711935*
%FSLAX23Y23*%
%MOIN*%
G70*
G01*
G75*
%ADD48C,0.067*%
%ADD49R,0.081X0.081*%
%ADD50C,0.081*%
%ADD51C,0.068*%
%ADD52R,0.098X0.098*%
%ADD53R,0.108X0.108*%
%ADD54C,0.088*%
%ADD55R,0.081X0.081*%
%ADD56C,0.058*%
D48*
X-6535Y-120D02*
D03*
Y-20D02*
D03*
X-5335Y-120D02*
D03*
Y-20D02*
D03*
X-4825Y-105D02*
D03*
Y-5D02*
D03*
X-3625Y-105D02*
D03*
Y-5D02*
D03*
X-4602Y1740D02*
D03*
X-4520Y1683D02*
D03*
X-5290Y757D02*
D03*
X-5208Y700D02*
D03*
X-7040Y445D02*
D03*
X-7140D02*
D03*
X-7040Y1645D02*
D03*
X-7140D02*
D03*
D49*
X-7720Y630D02*
D03*
D50*
Y430D02*
D03*
X-7280Y-615D02*
D03*
D51*
X-7455Y195D02*
D03*
Y-2D02*
D03*
Y-199D02*
D03*
D52*
X-5330Y2045D02*
D03*
Y1645D02*
D03*
X-6225Y2035D02*
D03*
Y1635D02*
D03*
D53*
X-4790Y-810D02*
D03*
Y-1610D02*
D03*
X-6690D02*
D03*
Y-810D02*
D03*
D54*
X-7718Y-521D02*
D03*
X-7660Y-646D02*
D03*
X-7601Y-771D02*
D03*
X-7543Y-895D02*
D03*
X-7485Y-1020D02*
D03*
X-7436Y-1127D02*
D03*
X-5647Y-2030D02*
D03*
X-5785D02*
D03*
D55*
X-7080Y-615D02*
D03*
D56*
X-7675Y-205D02*
D03*
X-7570Y-200D02*
D03*
X-7580Y175D02*
D03*
X-7735Y230D02*
D03*
X-7255Y385D02*
D03*
X-7510Y-760D02*
D03*
X-3605Y-195D02*
D03*
X-6850Y-655D02*
D03*
X-6890Y-255D02*
D03*
X-4225Y420D02*
D03*
X-6905Y-1425D02*
D03*
X-5325Y1435D02*
D03*
X-3785Y830D02*
D03*
X-5090Y-1525D02*
D03*
X-5495Y-1585D02*
D03*
X-6425Y-1105D02*
D03*
X-6580Y-1060D02*
D03*
X-7025Y-1207D02*
D03*
X-6990Y25D02*
D03*
X-7170Y75D02*
D03*
X-6869Y-1105D02*
D03*
X-6951Y-137D02*
D03*
M02*
